:FULLY-SPECIFIED
:FORCE-ALL-JOINTS-BE-3DOF
:DEGREES
162
root 8.20181 16.6776 -13.4831 7.50298 9.41553 -0.693026
lfemur -5.74076 7.9355 -14.7516
ltibia 55.1326 -0 0
lfoot 1.50638 12.6025 0.0823175
ltoes -13.0355 0 0
rfemur -28.6807 1.68976 23.1989
rtibia 29.9732 -0 0
rfoot -13.4809 0.108034 0.0651767
rtoes -15.2252 0 0
lowerback -4.71132 -1.81819 -0.564218
upperback -1.65749 -2.43677 3.42905
thorax 1.11034 -1.21481 3.6968
lowerneck -18.7477 -7.15002 -14.5181
upperneck 14.8851 -8.70287 14.5126
head 9.07735 -3.52907 6.21334
lclavicle -2.80846e-14 2.17648e-14 -6.23555e-31
lhumerus -44.6595 -13.4284 97.2859
lradius 27.265 -0 0
lwrist 4.49879 0 0
lhand -0.929744 -18.7255 0.00628469
lfingers 7.12502 -0 0
lthumb 24.6993 9.69809 0.00537415
rclavicle -2.80846e-14 2.17648e-14 -6.23555e-31
rhumerus -45.5545 9.43941 -81.6969
rradius 34.3059 -0 0
rwrist -18.7193 0 0
rhand -28.2248 -26.4206 -0.00514721
rfingers 7.12502 -0 0
rthumb -1.60306 -56.3958 -0.00485962
163
root 8.20397 16.6776 -13.5532 7.5303 9.37582 -0.834917
lfemur -6.5217 8.04051 -14.5946
ltibia 55.7958 -0 0
lfoot 1.62988 12.8145 0.0510728
ltoes -13.1766 0 0
rfemur -28.1613 1.52429 23.559
rtibia 29.9128 -0 0
rfoot -13.3354 0.373921 0.0415847
rtoes -15.0469 0 0
lowerback -4.65779 -1.74899 -0.434548
upperback -1.65606 -2.35084 3.45123
thorax 1.07088 -1.17088 3.65764
lowerneck -18.7157 -7.17318 -14.5365
upperneck 14.7753 -8.73587 14.5785
head 9.04276 -3.54132 6.23159
lclavicle -2.72128e-14 2.22991e-14 -4.16246e-31
lhumerus -44.9465 -13.1675 97.2436
lradius 27.0246 -0 0
lwrist 4.42954 0 0
lhand -0.866082 -18.6806 0.00272008
lfingers 7.12502 -0 0
lthumb 24.7605 9.73634 0.00243522
rclavicle -2.72128e-14 2.22991e-14 -4.16246e-31
rhumerus -45.4297 9.50676 -81.6789
rradius 34.4976 -0 0
rwrist -18.8126 0 0
rhand -28.2488 -26.4982 -0.00346099
rfingers 7.12502 -0 0
rthumb -1.62622 -56.4728 -0.00326428
164
root 8.20985 16.6749 -13.6502 7.55457 9.32992 -0.968487
lfemur -7.28366 8.12229 -14.4603
ltibia 56.3182 -0 0
lfoot 1.70741 12.9989 0.02346
ltoes -13.3131 0 0
rfemur -27.6412 1.38737 23.8889
rtibia 29.8089 -0 0
rfoot -13.2168 0.621008 0.0197317
rtoes -14.8791 0 0
lowerback -4.61396 -1.68031 -0.313595
upperback -1.65267 -2.26514 3.47086
thorax 1.03968 -1.12724 3.62026
lowerneck -18.6814 -7.19346 -14.5537
upperneck 14.6773 -8.76552 14.6385
head 9.01093 -3.55255 6.24836
lclavicle -2.63325e-14 2.27324e-14 -2.07422e-31
lhumerus -45.2146 -12.9315 97.2065
lradius 26.8149 -0 0
lwrist 4.38011 0 0
lhand -0.831942 -18.6514 0.000588245
lfingers 7.12502 -0 0
lthumb 24.7933 9.76181 0.000614398
rclavicle -2.63325e-14 2.27324e-14 -2.07422e-31
rhumerus -45.2993 9.568 -81.6592
rradius 34.7032 -0 0
rwrist -18.9116 0 0
rhand -28.2799 -26.573 -0.00174206
rfingers 7.12502 -0 0
rthumb -1.65628 -56.5468 -0.00164135
165
root 8.21964 16.6696 -13.7752 7.57564 9.27781 -1.09318
lfemur -8.02459 8.17899 -14.3492
ltibia 56.6923 0 0
lfoot 1.73682 13.1541 0
ltoes -13.4446 0 0
rfemur -27.1207 1.28124 24.1873
rtibia 29.659 0 0
rfoot -13.1264 0.848233 0
rtoes -14.7226 0 0
lowerback -4.58039 -1.61222 -0.201933
upperback -1.64723 -2.17981 3.48779
thorax 1.0172 -1.08396 3.58479
lowerneck -18.6444 -7.21073 -14.5694
upperneck 14.5916 -8.79172 14.6921
head 8.98202 -3.56274 6.26355
lclavicle -2.54444e-14 2.3059e-14 0
lhumerus -45.4629 -12.722 97.1754
lradius 26.6379 0 0
lwrist 4.35162 0 0
lhand -0.828752 -18.6386 0
lfingers 7.12502 0 0
lthumb 24.7963 9.77387 0
rclavicle -2.54444e-14 2.3059e-14 0
rhumerus -45.1634 9.62268 -81.6378
rradius 34.923 0 0
rwrist -19.0166 0 0
rhand -28.3185 -26.6449 0
rfingers 7.12502 0 0
rthumb -1.69352 -56.6179 0
166
root 8.20881 16.6757 -13.6301 7.59287 9.21637 -1.21327
lfemur -8.76972 8.20858 -14.2583
ltibia 56.9229 -0 0
lfoot 1.71478 13.2868 -0.0199444
ltoes -13.5773 0 0
rfemur -26.5852 1.20357 24.466
rtibia 29.4619 -0 0
rfoot -13.0694 1.0601 -0.0182674
rtoes -14.5695 0 0
lowerback -4.55574 -1.54249 -0.0958246
upperback -1.63895 -2.09213 3.5029
thorax 1.00322 -1.03964 3.55038
lowerneck -18.6041 -7.22515 -14.5837
upperneck 14.5157 -8.81478 14.7407
head 8.9551 -3.57195 6.27753
lclavicle -2.45069e-14 2.32908e-14 2.12954e-31
lhumerus -45.6966 -12.5335 97.1494
lradius 26.4891 -0 0
lwrist 4.34668 0 0
lhand -0.858858 -18.6427 0.00106334
lfingers 7.12502 -0 0
lthumb 24.7673 9.77228 0.000667468
rclavicle -2.45069e-14 2.32908e-14 2.12954e-31
rhumerus -45.0143 9.67446 -81.614
rradius 35.168 -0 0
rwrist -19.1326 0 0
rhand -28.3672 -26.7173 0.00182381
rfingers 7.12502 -0 0
rthumb -1.7405 -56.6893 0.00171439
167
root 8.19982 16.6807 -13.4739 7.60588 9.14277 -1.33329
lfemur -9.54441 8.21104 -14.1836
ltibia 57.0238 -0 0
lfoot 1.6411 13.4051 -0.0372814
ltoes -13.717 0 0
rfemur -26.0208 1.14959 24.738
rtibia 29.22 -0 0
rfoot -13.0484 1.26202 -0.035839
rtoes -14.4117 0 0
lowerback -4.53807 -1.46896 0.0088025
upperback -1.62721 -1.99947 3.51715
thorax 0.99695 -0.992955 3.5161
lowerneck -18.5599 -7.23701 -14.5967
upperneck 14.4464 -8.83517 14.7859
head 8.92913 -3.58029 6.29075
lclavicle -2.34813e-14 2.34454e-14 4.38959e-31
lhumerus -45.9219 -12.3592 97.1268
lradius 26.3624 -0 0
lwrist 4.36618 0 0
lhand -0.92256 -18.6631 0.00375462
lfingers 7.12502 -0 0
lthumb 24.706 9.75764 0.00259012
rclavicle -2.34813e-14 2.34454e-14 4.38959e-31
rhumerus -44.8452 9.72722 -81.5876
rradius 35.4474 -0 0
rwrist -19.2642 0 0
rhand -28.4279 -26.7935 0.00376655
rfingers 7.12502 -0 0
rthumb -1.79918 -56.7643 0.00353641
168
root 8.1926 16.6846 -13.3077 7.61494 9.05747 -1.4531
lfemur -10.3467 8.18758 -14.124
ltibia 57.0012 -0 0
lfoot 1.51828 13.5093 -0.0519743
ltoes -13.8628 0 0
rfemur -25.4289 1.11795 25.0034
rtibia 28.9357 -0 0
rfoot -13.0613 1.45432 -0.0525339
rtoes -14.2496 0 0
lowerback -4.52707 -1.39184 0.111874
upperback -1.61222 -1.90212 3.53055
thorax 0.998003 -0.94402 3.48197
lowerneck -18.512 -7.24639 -14.6084
upperneck 14.3835 -8.85297 14.8277
head 8.90412 -3.58777 6.30322
lclavicle -2.23733e-14 2.3526e-14 6.75602e-31
lhumerus -46.1388 -12.1983 97.1075
lradius 26.2565 -0 0
lwrist 4.40873 0 0
lhand -1.01822 -18.6991 0.00794958
lfingers 7.12502 -0 0
lthumb 24.614 9.73056 0.00567388
rclavicle -2.23733e-14 2.3526e-14 6.75602e-31
rhumerus -44.6575 9.78079 -81.5588
rradius 35.7593 -0 0
rwrist -19.4105 0 0
rhand -28.5001 -26.8732 0.005787
rfingers 7.12502 -0 0
rthumb -1.86892 -56.8425 0.00542739
169
root 8.18703 16.6874 -13.1323 7.62031 8.96091 -1.57255
lfemur -11.1748 8.13937 -14.0784
ltibia 56.8612 -0 0
lfoot 1.34883 13.6001 -0.0640303
ltoes -14.0142 0 0
rfemur -24.8109 1.10731 25.2626
rtibia 28.6116 -0 0
rfoot -13.106 1.6373 -0.0682031
rtoes -14.0835 0 0
lowerback -4.52243 -1.31134 0.213315
upperback -1.59419 -1.80037 3.54311
thorax 1.00599 -0.892974 3.44804
lowerneck -18.4608 -7.2534 -14.6188
upperneck 14.3268 -8.86828 14.8664
head 8.88006 -3.59442 6.31498
lclavicle -2.11883e-14 2.35357e-14 9.20246e-31
lhumerus -46.3475 -12.0504 97.0912
lradius 26.1706 -0 0
lwrist 4.4729 0 0
lhand -1.1442 -18.7498 0.0135017
lfingers 7.12502 -0 0
lthumb 24.4929 9.69164 0.00980744
rclavicle -2.11883e-14 2.35357e-14 9.20246e-31
rhumerus -44.4522 9.83503 -81.5277
rradius 36.1017 -0 0
rwrist -19.5705 0 0
rhand -28.5832 -26.9561 0.00784441
rfingers 7.12502 -0 0
rthumb -1.94908 -56.9237 0.00734923
170
root 8.18302 16.6893 -12.9486 7.62226 8.85354 -1.69149
lfemur -12.0265 8.06762 -14.0457
ltibia 56.6096 -0 0
lfoot 1.13525 13.6777 -0.0734963
ltoes -14.1703 0 0
rfemur -24.1683 1.11636 25.5156
rtibia 28.2502 -0 0
rfoot -13.1805 1.81128 -0.0827262
rtoes -13.914 0 0
lowerback -4.52384 -1.22767 0.31305
upperback -1.57333 -1.6945 3.55484
thorax 1.02053 -0.839947 3.41431
lowerneck -18.4064 -7.25812 -14.628
upperneck 14.2761 -8.88119 14.9021
head 8.85694 -3.60026 6.32604
lclavicle -1.99319e-14 2.34777e-14 1.17009e-30
lhumerus -46.5481 -11.9147 97.0777
lradius 26.1035 -0 0
lwrist 4.55729 0 0
lhand -1.29887 -18.8146 0.0202464
lfingers 7.12502 -0 0
lthumb 24.3441 9.6415 0.0148655
rclavicle -1.99319e-14 2.34777e-14 1.17009e-30
rhumerus -44.2306 9.88976 -81.4946
rradius 36.4728 -0 0
rwrist -19.7435 0 0
rhand -28.6763 -27.0417 0.00989909
rfingers 7.12502 -0 0
rthumb -2.03902 -57.0075 0.00926484
171
root 8.18047 16.6902 -12.7577 7.62105 8.73583 -1.80975
lfemur -12.9 7.97353 -14.0249
ltibia 56.2527 -0 0
lfoot 0.880037 13.7427 -0.0804539
ltoes -14.3305 0 0
rfemur -23.5025 1.14381 25.7628
rtibia 27.8541 -0 0
rfoot -13.2826 1.97656 -0.0960098
rtoes -13.7416 0 0
lowerback -4.53099 -1.14103 0.411004
upperback -1.54983 -1.5848 3.56575
thorax 1.04123 -0.785074 3.38082
lowerneck -18.3492 -7.26064 -14.636
upperneck 14.2312 -8.8918 14.9347
head 8.83476 -3.60532 6.33642
lclavicle -1.86096e-14 2.33553e-14 1.42221e-30
lhumerus -46.7408 -11.7907 97.0668
lradius 26.0544 -0 0
lwrist 4.66049 0 0
lhand -1.4806 -18.8925 0.0280053
lfingers 7.12502 -0 0
lthumb 24.1693 9.58074 0.0207118
rclavicle -1.86096e-14 2.33553e-14 1.42221e-30
rhumerus -43.9939 9.94482 -81.4597
rradius 36.8704 -0 0
rwrist -19.9284 0 0
rhand -28.7789 -27.1297 0.0119129
rfingers 7.12502 -0 0
rthumb -2.1381 -57.0936 0.0111387
172
root 8.17929 16.6902 -12.5603 7.61695 8.60822 -1.92719
lfemur -13.7933 7.85831 -14.0148
ltibia 55.7965 -0 0
lfoot 0.585685 13.7955 -0.0850149
ltoes -14.4941 0 0
rfemur -22.8149 1.18837 26.0043
rtibia 27.4258 -0 0
rfoot -13.4101 2.13345 -0.107984
rtoes -13.5665 0 0
lowerback -4.54359 -1.05165 0.507103
upperback -1.52391 -1.47155 3.57585
thorax 1.06771 -0.728487 3.3476
lowerneck -18.2893 -7.26105 -14.6428
upperneck 14.1919 -8.9002 14.9645
head 8.81351 -3.60961 6.34616
lclavicle -1.72269e-14 2.31715e-14 1.67362e-30
lhumerus -46.9256 -11.6778 97.0583
lradius 26.022 -0 0
lwrist 4.7811 0 0
lhand -1.68773 -18.983 0.0365894
lfingers 7.12502 -0 0
lthumb 23.9701 9.50997 0.0272021
rclavicle -1.72269e-14 2.31715e-14 1.67362e-30
rhumerus -43.7433 10.0001 -81.4232
rradius 37.2926 -0 0
rwrist -20.1244 0 0
rhand -28.8903 -27.2198 0.0138496
rfingers 7.12502 -0 0
rthumb -2.24569 -57.1816 0.012937
173
root 8.17937 16.6894 -12.3574 7.61021 8.47117 -2.04366
lfemur -14.7044 7.72318 -14.0144
ltibia 55.247 -0 0
lfoot 0.25469 13.8366 -0.087317
ltoes -14.6603 0 0
rfemur -22.1072 1.24878 26.2404
rtibia 26.9678 -0 0
rfoot -13.5611 2.28224 -0.118602
rtoes -13.3894 0 0
lowerback -4.56133 -0.959726 0.60127
upperback -1.49577 -1.35504 3.58514
thorax 1.09958 -0.670321 3.31466
lowerneck -18.227 -7.25945 -14.6485
upperneck 14.158 -8.90647 14.9915
head 8.7932 -3.61316 6.35527
lclavicle -1.57895e-14 2.29296e-14 1.92135e-30
lhumerus -47.1028 -11.5753 97.0518
lradius 26.0054 -0 0
lwrist 4.91769 0 0
lhand -1.91866 -19.0852 0.0458034
lfingers 7.12502 -0 0
lthumb 23.7481 9.4298 0.0341871
rclavicle -1.57895e-14 2.29296e-14 1.92135e-30
rhumerus -43.4801 10.0553 -81.3853
rradius 37.7376 -0 0
rwrist -20.3307 0 0
rhand -29.0099 -27.3117 0.0156755
rfingers 7.12502 -0 0
rthumb -2.36114 -57.2712 0.0146285
